<svg width="21" height="16" viewBox="0 0 21 16" fill="none" xmlns="http://www.w3.org/2000/svg">
<path d="M0.347656 3.03613C0.347656 2.7041 0.376953 2.41113 0.435547 2.15723C0.494141 1.89355 0.606445 1.67871 0.772461 1.5127C0.938477 1.34668 1.16797 1.21973 1.46094 1.13184C1.75391 1.04395 2.13477 1 2.60352 1H8.59473C9.03418 1 9.40527 1.04395 9.70801 1.13184C10.0107 1.21973 10.2305 1.37109 10.3672 1.58594C10.4941 1.48828 10.6504 1.39062 10.8359 1.29297C11.0215 1.18555 11.2217 1.08789 11.4365 1C11.6611 0.912109 11.8955 0.84375 12.1396 0.794922C12.3936 0.736328 12.6523 0.707031 12.916 0.707031C13.8145 0.707031 14.5176 1.00488 15.0254 1.60059C15.1523 1.49316 15.3135 1.38574 15.5088 1.27832C15.7041 1.1709 15.9189 1.07812 16.1533 1C16.3877 0.912109 16.6318 0.84375 16.8857 0.794922C17.1494 0.736328 17.4082 0.707031 17.6621 0.707031C18.5996 0.707031 19.3271 1.0293 19.8447 1.67383C20.3721 2.31836 20.6357 3.26562 20.6357 4.51562V15.3115C20.6357 15.4775 20.6113 15.6094 20.5625 15.707C20.5234 15.7949 20.4697 15.8633 20.4014 15.9121C20.333 15.9512 20.2549 15.9756 20.167 15.9854C20.0791 15.9951 19.9912 16 19.9033 16H18.9805C18.7266 16 18.5605 15.9268 18.4824 15.7803C18.4141 15.6338 18.3799 15.4775 18.3799 15.3115V4.36914C18.3799 3.8125 18.2773 3.3877 18.0723 3.09473C17.877 2.80176 17.5596 2.65527 17.1201 2.65527C17.0029 2.65527 16.8809 2.67969 16.7539 2.72852C16.627 2.76758 16.5 2.82129 16.373 2.88965C16.2559 2.94824 16.1436 3.0166 16.0361 3.09473C15.9385 3.16309 15.8555 3.23145 15.7871 3.2998C15.8164 3.48535 15.8408 3.68066 15.8604 3.88574C15.8799 4.08105 15.8896 4.29102 15.8896 4.51562V15.3115C15.8896 15.4775 15.8652 15.6094 15.8164 15.707C15.7773 15.7949 15.7236 15.8633 15.6553 15.9121C15.5967 15.9512 15.5234 15.9756 15.4355 15.9854C15.3477 15.9951 15.2598 16 15.1719 16H14.2344C13.9805 16 13.8145 15.9268 13.7363 15.7803C13.668 15.6338 13.6338 15.4775 13.6338 15.3115V4.36914C13.6338 3.8125 13.5312 3.3877 13.3262 3.09473C13.1309 2.80176 12.8135 2.65527 12.374 2.65527C12.1494 2.65527 11.9199 2.71875 11.6855 2.8457C11.4609 2.96289 11.2803 3.08984 11.1436 3.22656V13.9492C11.1436 14.291 11.1143 14.5889 11.0557 14.8428C10.9971 15.0967 10.8848 15.3115 10.7188 15.4873C10.5527 15.6533 10.3232 15.7803 10.0303 15.8682C9.7373 15.9561 9.35645 16 8.8877 16H2.60352C2.13477 16 1.75391 15.9561 1.46094 15.8682C1.16797 15.7803 0.938477 15.6533 0.772461 15.4873C0.606445 15.3213 0.494141 15.1113 0.435547 14.8574C0.376953 14.6035 0.347656 14.3057 0.347656 13.9639V3.03613ZM9.89844 3.16797C9.89844 2.82617 9.80566 2.58691 9.62012 2.4502C9.44434 2.30371 9.15625 2.23047 8.75586 2.23047V14.7695C8.99023 14.7695 9.18066 14.7646 9.32715 14.7549C9.47363 14.7354 9.59082 14.6963 9.67871 14.6377C9.7666 14.5693 9.8252 14.4766 9.85449 14.3594C9.88379 14.2324 9.89844 14.0566 9.89844 13.832V3.16797Z" fill="black"/>
</svg>