<svg width="528" height="97" viewBox="0 0 528 97" fill="none" xmlns="http://www.w3.org/2000/svg">
<mask id="path-2-inside-1_142_1970" fill="white">
<path d="M0 5C0 2.23857 2.23858 0 5 0H523C525.761 0 528 2.23858 528 5V74.8047C528 77.5661 525.761 79.8047 523 79.8047H5C2.23857 79.8047 0 77.5661 0 74.8047V5Z"/>
</mask>
<path d="M0 5C0 2.23857 2.23858 0 5 0H523C525.761 0 528 2.23858 528 5V74.8047C528 77.5661 525.761 79.8047 523 79.8047H5C2.23857 79.8047 0 77.5661 0 74.8047V5Z" fill="#727272"/>
<path d="M5 7H523V-7H5V7ZM521 5V74.8047H535V5H521ZM523 72.8047H5V86.8047H523V72.8047ZM7 74.8047V5H-7V74.8047H7ZM5 72.8047C6.10457 72.8047 7 73.7001 7 74.8047H-7C-7 81.4321 -1.62743 86.8047 5 86.8047V72.8047ZM521 74.8047C521 73.7001 521.895 72.8047 523 72.8047V86.8047C529.627 86.8047 535 81.4321 535 74.8047H521ZM523 7C521.895 7 521 6.10456 521 5H535C535 -1.62741 529.627 -7 523 -7V7ZM5 -7C-1.62741 -7 -7 -1.62742 -7 5H7C7 6.10457 6.10457 7 5 7V-7Z" fill="#727272" mask="url(#path-2-inside-1_142_1970)"/>
<path d="M34.712 28.0393C34.032 28.0393 33.392 27.9353 32.792 27.7273C32.2 27.5193 31.672 27.2073 31.208 26.7913C30.744 26.3673 30.38 25.8433 30.116 25.2193C29.852 24.5873 29.72 23.8553 29.72 23.0233C29.72 22.0953 29.876 21.2553 30.188 20.5033C30.5 19.7433 30.928 19.0913 31.472 18.5473C32.024 18.0033 32.656 17.5873 33.368 17.2993C34.08 17.0033 34.84 16.8553 35.648 16.8553C36.592 16.8553 37.412 17.0553 38.108 17.4553C38.804 17.8473 39.34 18.3953 39.716 19.0993C40.1 19.8033 40.292 20.6193 40.292 21.5473C40.292 22.1473 40.204 22.6793 40.028 23.1433C39.852 23.5993 39.62 23.9833 39.332 24.2953C39.044 24.5993 38.728 24.8273 38.384 24.9793C38.04 25.1313 37.704 25.2073 37.376 25.2073C36.992 25.2073 36.66 25.1193 36.38 24.9433C36.108 24.7673 35.944 24.5113 35.888 24.1753H35.864C35.656 24.4393 35.4 24.6593 35.096 24.8353C34.8 25.0113 34.508 25.0993 34.22 25.0993C33.724 25.0993 33.312 24.9233 32.984 24.5713C32.656 24.2193 32.492 23.7313 32.492 23.1073C32.492 22.7233 32.556 22.3393 32.684 21.9553C32.82 21.5633 33.008 21.2113 33.248 20.8993C33.488 20.5873 33.772 20.3393 34.1 20.1553C34.428 19.9633 34.788 19.8673 35.18 19.8673C35.412 19.8673 35.616 19.9193 35.792 20.0233C35.968 20.1273 36.112 20.2993 36.224 20.5393H36.26L36.44 19.9633H37.436L36.848 22.8313C36.632 23.7513 36.86 24.2113 37.532 24.2113C37.812 24.2113 38.084 24.1073 38.348 23.8993C38.612 23.6833 38.828 23.3793 38.996 22.9873C39.172 22.5953 39.26 22.1273 39.26 21.5833C39.26 21.0633 39.184 20.5793 39.032 20.1313C38.88 19.6753 38.652 19.2793 38.348 18.9433C38.044 18.5993 37.656 18.3313 37.184 18.1393C36.712 17.9393 36.156 17.8393 35.516 17.8393C34.924 17.8393 34.348 17.9593 33.788 18.1993C33.228 18.4393 32.724 18.7873 32.276 19.2433C31.828 19.6913 31.472 20.2313 31.208 20.8633C30.952 21.4953 30.824 22.2033 30.824 22.9873C30.824 23.6513 30.924 24.2393 31.124 24.7513C31.332 25.2553 31.62 25.6793 31.988 26.0233C32.364 26.3593 32.796 26.6153 33.284 26.7913C33.772 26.9593 34.292 27.0433 34.844 27.0433C35.22 27.0433 35.596 26.9913 35.972 26.8873C36.348 26.7753 36.68 26.6393 36.968 26.4793L37.34 27.3673C36.94 27.5993 36.52 27.7673 36.08 27.8713C35.648 27.9833 35.192 28.0393 34.712 28.0393ZM34.544 24.0793C34.704 24.0793 34.868 24.0273 35.036 23.9233C35.212 23.8113 35.404 23.6273 35.612 23.3713L35.972 21.3793C35.868 21.2113 35.756 21.0913 35.636 21.0193C35.516 20.9473 35.376 20.9113 35.216 20.9113C34.976 20.9113 34.764 20.9793 34.58 21.1153C34.396 21.2433 34.236 21.4113 34.1 21.6193C33.972 21.8273 33.872 22.0553 33.8 22.3033C33.736 22.5513 33.704 22.7913 33.704 23.0233C33.704 23.3913 33.78 23.6593 33.932 23.8273C34.084 23.9953 34.288 24.0793 34.544 24.0793ZM43.544 27.1633C42.984 27.1633 42.504 27.0473 42.104 26.8153C41.712 26.5753 41.384 26.2273 41.12 25.7713L41.912 25.1953C42.112 25.5553 42.336 25.8113 42.584 25.9633C42.84 26.1153 43.124 26.1913 43.436 26.1913C43.916 26.1913 44.272 26.0473 44.504 25.7593C44.736 25.4633 44.852 24.9833 44.852 24.3193V18.2113H45.968V24.4273C45.968 24.9313 45.884 25.3913 45.716 25.8073C45.548 26.2233 45.284 26.5553 44.924 26.8033C44.572 27.0433 44.112 27.1633 43.544 27.1633ZM47.9259 27.0073V20.4913H49.0299V27.0073H47.9259ZM48.4779 19.1473C48.2619 19.1473 48.0859 19.0833 47.9499 18.9553C47.8219 18.8193 47.7579 18.6393 47.7579 18.4153C47.7579 18.1993 47.8219 18.0273 47.9499 17.8993C48.0859 17.7713 48.2619 17.7073 48.4779 17.7073C48.6939 17.7073 48.8699 17.7713 49.0059 17.8993C49.1419 18.0273 49.2099 18.1993 49.2099 18.4153C49.2099 18.6393 49.1419 18.8193 49.0059 18.9553C48.8699 19.0833 48.6939 19.1473 48.4779 19.1473ZM50.9306 27.0073V17.4553H52.0346V20.0713L51.9866 21.4153C52.2906 21.1113 52.6146 20.8553 52.9586 20.6473C53.3026 20.4313 53.6986 20.3233 54.1466 20.3233C54.8346 20.3233 55.3386 20.5433 55.6586 20.9833C55.9786 21.4153 56.1386 22.0473 56.1386 22.8793V27.0073H55.0466V23.0233C55.0466 22.4073 54.9466 21.9633 54.7466 21.6913C54.5546 21.4193 54.2426 21.2833 53.8106 21.2833C53.4746 21.2833 53.1746 21.3673 52.9106 21.5353C52.6466 21.7033 52.3546 21.9513 52.0346 22.2793V27.0073H50.9306ZM58.9516 27.0073L57.1396 20.4913H58.2556L59.2276 24.2593C59.2996 24.5713 59.3636 24.8753 59.4196 25.1713C59.4836 25.4673 59.5476 25.7673 59.6116 26.0713H59.6716C59.7436 25.7673 59.8116 25.4673 59.8756 25.1713C59.9476 24.8753 60.0236 24.5713 60.1036 24.2593L61.1236 20.4913H62.1916L63.2116 24.2593C63.2916 24.5713 63.3676 24.8753 63.4396 25.1713C63.5196 25.4673 63.5956 25.7673 63.6676 26.0713H63.7276C63.7916 25.7673 63.8556 25.4673 63.9196 25.1713C63.9836 24.8753 64.0516 24.5713 64.1236 24.2593L65.0716 20.4913H66.1276L64.3636 27.0073H63.0316L62.0956 23.4913C62.0156 23.1873 61.9396 22.8833 61.8676 22.5793C61.7956 22.2673 61.7236 21.9473 61.6516 21.6193H61.5916C61.5196 21.9473 61.4476 22.2673 61.3756 22.5793C61.3116 22.8913 61.2356 23.2033 61.1476 23.5153L60.2236 27.0073H58.9516ZM68.5767 27.1633C68.2167 27.1633 67.8927 27.0913 67.6047 26.9473C67.3167 26.8033 67.0887 26.5953 66.9207 26.3233C66.7607 26.0433 66.6807 25.7073 66.6807 25.3153C66.6807 24.6033 66.9967 24.0593 67.6287 23.6833C68.2687 23.2993 69.2847 23.0313 70.6767 22.8793C70.6767 22.5993 70.6367 22.3353 70.5567 22.0873C70.4847 21.8313 70.3527 21.6273 70.1607 21.4753C69.9687 21.3153 69.6927 21.2353 69.3327 21.2353C68.9567 21.2353 68.6007 21.3113 68.2647 21.4633C67.9367 21.6073 67.6407 21.7633 67.3767 21.9313L66.9567 21.1753C67.1567 21.0473 67.3887 20.9193 67.6527 20.7913C67.9167 20.6553 68.2047 20.5433 68.5167 20.4553C68.8287 20.3673 69.1607 20.3233 69.5127 20.3233C70.0407 20.3233 70.4687 20.4353 70.7967 20.6593C71.1327 20.8833 71.3767 21.1953 71.5287 21.5953C71.6887 21.9873 71.7687 22.4553 71.7687 22.9993V27.0073H70.8687L70.7727 26.2273H70.7367C70.4327 26.4833 70.0967 26.7033 69.7287 26.8873C69.3687 27.0713 68.9847 27.1633 68.5767 27.1633ZM68.8887 26.2753C69.2007 26.2753 69.4967 26.2033 69.7767 26.0593C70.0647 25.9153 70.3647 25.7033 70.6767 25.4233V23.6113C69.9487 23.6913 69.3687 23.8073 68.9367 23.9593C68.5047 24.1033 68.1967 24.2833 68.0127 24.4993C67.8287 24.7073 67.7367 24.9553 67.7367 25.2433C67.7367 25.6193 67.8487 25.8873 68.0727 26.0473C68.2967 26.1993 68.5687 26.2753 68.8887 26.2753ZM73.5384 27.0073V20.4913H74.4384L74.5464 21.4393H74.5704C74.8824 21.1273 75.2104 20.8633 75.5544 20.6473C75.9064 20.4313 76.3064 20.3233 76.7544 20.3233C77.4424 20.3233 77.9464 20.5433 78.2664 20.9833C78.5864 21.4153 78.7464 22.0473 78.7464 22.8793V27.0073H77.6544V23.0233C77.6544 22.4073 77.5544 21.9633 77.3544 21.6913C77.1624 21.4193 76.8504 21.2833 76.4184 21.2833C76.0824 21.2833 75.7824 21.3673 75.5184 21.5353C75.2544 21.7033 74.9624 21.9513 74.6424 22.2793V27.0073H73.5384Z" fill="white"/>
<path opacity="0.9" d="M31.156 34.9613H39.304V35.8993H31.156V34.9613ZM29.7 39.4273H41.18V40.3793H29.7V39.4273ZM34.824 39.8333H35.972V42.3533H34.824V39.8333ZM38.548 34.9613H39.682V35.8013C39.682 36.2867 39.668 36.8607 39.64 37.5233C39.612 38.186 39.4953 38.956 39.29 39.8333L38.17 39.7073C38.3567 38.8393 38.464 38.0927 38.492 37.4673C38.5293 36.8327 38.548 36.2773 38.548 35.8013V34.9613ZM34.81 42.8713H35.804V43.3193C35.804 43.8233 35.678 44.2853 35.426 44.7053C35.174 45.116 34.824 45.4847 34.376 45.8113C33.928 46.1287 33.41 46.39 32.822 46.5953C32.2433 46.81 31.6273 46.9593 30.974 47.0433L30.568 46.1473C31.1373 46.082 31.674 45.9653 32.178 45.7973C32.6913 45.62 33.144 45.41 33.536 45.1673C33.9373 44.9153 34.25 44.6353 34.474 44.3273C34.698 44.01 34.81 43.674 34.81 43.3193V42.8713ZM35.006 42.8713H35.986V43.3193C35.986 43.6833 36.098 44.024 36.322 44.3413C36.546 44.6493 36.854 44.9293 37.246 45.1813C37.638 45.424 38.0907 45.6293 38.604 45.7973C39.1173 45.9653 39.6587 46.082 40.228 46.1473L39.836 47.0433C39.1733 46.95 38.5527 46.8007 37.974 46.5953C37.3953 46.39 36.882 46.1333 36.434 45.8253C35.986 45.508 35.636 45.1393 35.384 44.7193C35.132 44.2993 35.006 43.8327 35.006 43.3193V42.8713Z" fill="white"/>
<path d="M29.88 61.0073V60.2473H31.52V54.7773H30.21V54.1973C30.5367 54.1373 30.82 54.064 31.06 53.9773C31.3067 53.8907 31.53 53.7907 31.73 53.6773H32.43V60.2473H33.9V61.0073H29.88ZM34.7869 57.5173H42.9869V58.1873H34.7869V57.5173ZM38.5269 57.8573H39.3569V59.9373H38.5269V57.8573ZM35.8269 60.9073H42.0769V61.5873H35.8269V60.9073ZM35.8269 59.1273H36.6469V61.1573H35.8269V59.1273ZM35.8769 53.0273H36.6969V54.1773H41.0769V53.0273H41.8969V56.6473H35.8769V53.0273ZM36.6969 54.8173V55.9773H41.0769V54.8173H36.6969ZM50.5224 55.2373H52.8124V55.9173H50.5224V55.2373ZM52.3424 52.7473H53.1724V59.3773H52.3424V52.7473ZM47.4024 60.9073H53.4224V61.5873H47.4024V60.9073ZM47.4024 58.7873H48.2224V61.2473H47.4024V58.7873ZM48.0324 53.8673H48.7124V54.5973C48.7124 55.144 48.6058 55.6607 48.3924 56.1473C48.1858 56.6273 47.8924 57.0473 47.5124 57.4073C47.1324 57.7607 46.6924 58.034 46.1924 58.2273L45.7624 57.5573C46.0958 57.4373 46.3991 57.2773 46.6724 57.0773C46.9524 56.8773 47.1958 56.6473 47.4024 56.3873C47.6091 56.1273 47.7658 55.844 47.8724 55.5373C47.9791 55.2307 48.0324 54.9173 48.0324 54.5973V53.8673ZM48.1924 53.8673H48.8724V54.5973C48.8724 54.984 48.9624 55.3607 49.1424 55.7273C49.3224 56.094 49.5791 56.4207 49.9124 56.7073C50.2458 56.9873 50.6291 57.204 51.0624 57.3573L50.6424 58.0173C50.1491 57.8373 49.7191 57.5773 49.3524 57.2373C48.9858 56.8907 48.6991 56.4907 48.4924 56.0373C48.2924 55.584 48.1924 55.104 48.1924 54.5973V53.8673ZM46.0224 53.4773H50.8524V54.1573H46.0224V53.4773Z" fill="white"/>
<path d="M489.538 33.0073H492.923V42.4359H489.538V33.0073ZM496.308 22.0073H486.154V25.1502H496.308V22.0073ZM491.231 51.8645C484.682 51.8645 479.385 46.9459 479.385 40.8645C479.385 34.783 484.682 29.8645 491.231 29.8645C497.78 29.8645 503.077 34.783 503.077 40.8645C504.262 40.8645 505.378 41.0688 506.462 41.4145V40.8645C506.462 37.533 505.209 34.4688 503.128 32.0488L505.531 29.8173C504.769 29.0159 504.008 28.293 503.145 27.6016L500.742 29.8645C498.118 27.8845 494.818 26.7216 491.231 26.7216C487.191 26.7216 483.317 28.2117 480.461 30.864C477.605 33.5163 476 37.1135 476 40.8645C476 44.6154 477.605 48.2127 480.461 50.865C483.317 53.5173 487.191 55.0073 491.231 55.0073C492.229 55.0073 493.194 54.913 494.125 54.7402C493.6 53.8288 493.228 52.8073 493.058 51.723C492.449 51.8016 491.857 51.8645 491.231 51.8645ZM507.037 45.3273L500.962 50.9688L498.271 48.4702L496.308 50.293L500.962 55.0073L509 47.543L507.037 45.3273Z" fill="white"/>
<path d="M491.307 95.9898C490.938 96.2948 490.404 96.2948 490.034 95.9898L466.146 76.2748C465.423 75.678 465.845 74.5036 466.782 74.5036H514.559C515.497 74.5036 515.919 75.678 515.195 76.2748L491.307 95.9898Z" fill="#727272"/>
</svg>
