<svg width="24" height="24" viewBox="0 0 24 24" fill="none" xmlns="http://www.w3.org/2000/svg">
<path d="M12.2595 6.409C15.0896 6.409 17.4255 8.74493 17.4255 11.575C17.4255 14.45 15.0896 16.741 12.2595 16.741C9.38453 16.741 7.09351 14.45 7.09351 11.575C7.09351 8.74493 9.38453 6.409 12.2595 6.409ZM12.2595 14.9442C14.1013 14.9442 15.5837 13.4617 15.5837 11.575C15.5837 9.73322 14.1013 8.25079 12.2595 8.25079C10.3728 8.25079 8.89038 9.73322 8.89038 11.575C8.89038 13.4617 10.4177 14.9442 12.2595 14.9442ZM18.8181 6.22931C18.8181 6.90314 18.2791 7.4422 17.6052 7.4422C16.9314 7.4422 16.3923 6.90314 16.3923 6.22931C16.3923 5.55548 16.9314 5.01642 17.6052 5.01642C18.2791 5.01642 18.8181 5.55548 18.8181 6.22931ZM22.2322 7.4422C22.322 9.10431 22.322 14.0906 22.2322 15.7527C22.1423 17.3699 21.783 18.7625 20.615 19.9754C19.447 21.1434 18.0095 21.5027 16.3923 21.5926C14.7302 21.6824 9.7439 21.6824 8.08179 21.5926C6.4646 21.5027 5.07203 21.1434 3.85913 19.9754C2.69117 18.7625 2.33179 17.3699 2.24195 15.7527C2.1521 14.0906 2.1521 9.10431 2.24195 7.4422C2.33179 5.82501 2.69117 4.38751 3.85913 3.21954C5.07203 2.05157 6.4646 1.6922 8.08179 1.60236C9.7439 1.51251 14.7302 1.51251 16.3923 1.60236C18.0095 1.6922 19.447 2.05157 20.615 3.21954C21.783 4.38751 22.1423 5.82501 22.2322 7.4422ZM20.0759 17.5047C20.615 16.202 20.4802 13.0574 20.4802 11.575C20.4802 10.1375 20.615 6.99298 20.0759 5.64532C19.7166 4.79181 19.0427 4.07306 18.1892 3.75861C16.8416 3.21954 13.697 3.35431 12.2595 3.35431C10.7771 3.35431 7.63257 3.21954 6.32984 3.75861C5.4314 4.11798 4.75757 4.79181 4.3982 5.64532C3.85913 6.99298 3.9939 10.1375 3.9939 11.575C3.9939 13.0574 3.85913 16.202 4.3982 17.5047C4.75757 18.4031 5.4314 19.077 6.32984 19.4363C7.63257 19.9754 10.7771 19.8406 12.2595 19.8406C13.697 19.8406 16.8416 19.9754 18.1892 19.4363C19.0427 19.077 19.7615 18.4031 20.0759 17.5047Z" fill="#9A9A9A"/>
</svg>
