
<svg width="24" height="24" viewBox="0 0 24 24" fill="none" xmlns="http://www.w3.org/2000/svg">
<path d="M12.0998 1.86096C6.72558 1.86096 2.3689 5.8907 2.3689 10.8616C2.3689 14.5334 3.90672 16.286 6.01251 17.8835L6.02301 17.8878V22.1967C6.02299 22.2426 6.0357 22.2875 6.05974 22.3265C6.08378 22.3656 6.1182 22.3971 6.15914 22.4177C6.20009 22.4383 6.24595 22.4471 6.29162 22.4432C6.33728 22.4392 6.38094 22.4226 6.41773 22.3953L10.1081 19.6538L10.1873 19.6886C10.8182 19.805 11.4583 19.8638 12.0998 19.8642C17.4746 19.8642 21.8312 15.834 21.8312 10.8631C21.8312 5.89213 17.4746 1.86096 12.0998 1.86096ZM8.83805 13.1426C9.79262 13.1426 10.6078 12.5699 10.8532 11.6893H12.264C11.9189 13.3875 10.5978 14.5 8.83805 14.5C6.79287 14.5 5.17105 12.9727 5.17105 10.8516C5.17105 8.73056 6.79383 7.20324 8.83805 7.20324C10.6159 7.20324 11.9461 8.33823 12.2745 10.067H10.8675C10.6537 9.12528 9.81172 8.54108 8.83805 8.54108C7.46299 8.54108 6.54707 9.52238 6.54707 10.8516C6.54707 12.1809 7.58708 13.1426 8.83805 13.1426ZM18.1347 14.3597H16.8417V11.4435C16.8417 10.7719 16.4508 10.4111 15.8494 10.4111C15.1779 10.4111 14.7469 10.8216 14.7469 11.652V14.3583H13.4539V7.22615H14.7469V9.90946C15.0576 9.43838 15.5583 9.20785 16.2403 9.20785C16.7916 9.20785 17.2426 9.38826 17.5934 9.75911C17.9542 10.13 18.1347 10.6311 18.1347 11.2826V14.3597Z" fill="white" fill-opacity="0.45"/>
</svg>
