<svg width="24" height="24" viewBox="0 0 24 24" fill="none" xmlns="http://www.w3.org/2000/svg">
<path d="M17.6726 14.9951C17.5282 15.1679 17.4113 15.3115 17.2904 15.4519C16.6673 16.1765 16.04 16.8978 15.4234 17.6272C15.3017 17.7717 15.1727 17.8236 14.986 17.8236C13.0744 17.8179 11.1627 17.8187 9.25104 17.822C9.10337 17.822 8.98409 17.8049 8.8778 17.6767C8.16539 16.8175 7.44405 15.9647 6.72596 15.1095C6.70405 15.0835 6.69107 15.0494 6.65942 14.9951C10.3335 14.9951 13.9783 14.9951 17.6726 14.9951Z" fill="#9A9A9A"/>
<path d="M10.0115 18.9158C11.4249 18.9158 12.8205 18.9158 14.273 18.9158C14.066 19.1665 13.8892 19.3823 13.7098 19.5965C13.236 20.1621 12.7613 20.7268 12.2866 21.2916C12.2161 21.3751 12.1633 21.4944 12.0335 21.3419C11.3657 20.5564 10.6922 19.7759 10.022 18.992C10.0131 18.9807 10.0172 18.9572 10.0115 18.9158Z" fill="#9A9A9A"/>
<path d="M17.753 8.43247C17.753 6.64414 17.749 4.855 17.7579 3.06666C17.7587 2.8411 17.7133 2.75914 17.4666 2.75995C13.8891 2.76807 10.3125 2.76807 6.73499 2.75995C6.48913 2.75914 6.44288 2.83947 6.44288 3.06666C6.44937 6.6344 6.44937 10.2021 6.44288 13.7699C6.44207 13.9954 6.48751 14.0774 6.73417 14.0766C10.3116 14.0685 13.8883 14.0685 17.4658 14.0766C17.7116 14.0774 17.7587 13.9971 17.7579 13.7699C17.749 11.9905 17.753 10.2111 17.753 8.43247ZM14.3581 10.6638C13.9321 10.6565 13.5061 10.6525 13.081 10.6654C12.9041 10.6711 12.8075 10.5989 12.7166 10.4602C12.3126 9.84268 11.9004 9.23007 11.4874 8.61909C11.433 8.53795 11.4038 8.42597 11.2634 8.39514C11.3941 9.06698 11.3129 9.73395 11.3429 10.3977C11.3527 10.6135 11.2788 10.6744 11.0695 10.6663C10.663 10.6508 10.2557 10.6541 9.84915 10.6654C9.67064 10.6703 9.6252 10.6054 9.62601 10.4358C9.63169 9.09214 9.6325 7.74845 9.6252 6.40396C9.62439 6.20922 9.6966 6.16622 9.87349 6.17028C10.2897 6.18001 10.7068 6.18245 11.1222 6.16947C11.2975 6.16379 11.3949 6.23032 11.4857 6.37313C11.9158 7.05227 12.3548 7.72655 12.7937 8.40001C12.8432 8.47547 12.8708 8.57203 13.0006 8.63288C12.7978 7.89369 12.8838 7.16425 12.8578 6.43966C12.8505 6.22708 12.9162 6.16054 13.1288 6.16865C13.5443 6.18488 13.9613 6.17839 14.3776 6.17109C14.5261 6.16865 14.5739 6.2214 14.5739 6.36826C14.5699 7.73141 14.5691 9.09376 14.5748 10.4569C14.5748 10.6224 14.5131 10.6671 14.3581 10.6638Z" fill="#9A9A9A"/>
</svg>
