<svg width="14" height="16" viewBox="0 0 14 16" fill="none" xmlns="http://www.w3.org/2000/svg">
<path d="M7.05654 2.16838C7.31451 2.06095 7.59562 2.02859 7.86986 2.07475C8.14409 2.12092 8.40114 2.24387 8.61355 2.43048L8.71014 2.52237L12.3316 6.2972C12.5283 6.50198 12.6679 6.75864 12.7354 7.03972C12.8029 7.3208 12.7958 7.61573 12.7149 7.89295L12.6713 8.0208L10.8582 12.7457C10.7565 13.0102 10.5888 13.2416 10.3724 13.4158C10.1561 13.59 9.899 13.7008 9.62778 13.7366L5.73413 14.244C5.63396 14.2562 5.52919 14.2712 5.41982 14.2887L5.07944 14.3463L4.90158 14.3798L4.34732 14.4917L3.96784 14.5764L3.39671 14.7099L2.66459 14.892L1.4748 15.2085L0.979566 15.3475C0.854589 15.3833 0.722984 15.3859 0.596818 15.3549C0.470652 15.3239 0.353963 15.2605 0.257449 15.1703C0.160936 15.0801 0.0876864 14.9661 0.0444171 14.8387C0.00114783 14.7114 -0.0107566 14.5748 0.00979518 14.4414L0.0358601 14.3247L0.262012 13.4361L0.464399 12.5987L0.639188 11.8356L0.767213 11.2403L0.847708 10.8439L0.955801 10.267L1.01713 9.90182L1.06619 9.55982L1.57216 5.34071C1.60403 5.08033 1.69694 4.83214 1.84268 4.61807C1.98842 4.40401 2.1825 4.23065 2.40778 4.11333L2.52353 4.05819L7.05654 2.16838ZM7.62538 3.65226L3.09313 5.54207L2.64543 9.27535L2.60863 9.59178C2.53338 10.1796 2.43492 10.764 2.31348 11.3434L2.18239 11.9714L4.70303 9.34407C4.61564 9.00425 4.63828 8.64386 4.76742 8.31881C4.89657 7.99377 5.12501 7.72222 5.41731 7.5463C5.70961 7.37038 6.04944 7.29991 6.38408 7.34582C6.71872 7.39174 7.02948 7.55147 7.26815 7.80024C7.50682 8.04902 7.66006 8.37293 7.70411 8.72174C7.74816 9.07055 7.68055 9.42476 7.51177 9.72944C7.343 10.0341 7.08248 10.2722 6.77064 10.4068C6.45879 10.5415 6.11305 10.565 5.78703 10.474L3.26639 13.1013L3.5669 13.0318L4.16793 12.9C4.5425 12.8202 4.91904 12.7509 5.29716 12.6922L9.43459 12.152L11.2476 7.42789L7.62538 3.65226ZM9.43689 1.02011C9.5688 0.882413 9.74438 0.799617 9.93069 0.787259C10.117 0.7749 10.3012 0.83383 10.4488 0.95299L10.5209 1.02011L13.7729 4.40979C13.9118 4.55325 13.9929 4.74665 13.9996 4.9504C14.0062 5.15414 13.9379 5.35283 13.8086 5.50578C13.6793 5.65873 13.4988 5.75439 13.304 5.77317C13.1093 5.79195 12.915 5.73243 12.7609 5.6068L12.6889 5.53968L9.43689 2.15C9.29317 2.00015 9.21244 1.79694 9.21244 1.58506C9.21244 1.37317 9.29317 1.16996 9.43689 1.02011Z" fill="white"/>
</svg>
