<svg width="24" height="24" viewBox="0 0 24 24" fill="none" xmlns="http://www.w3.org/2000/svg">
<path d="M3.51465 22.4292C4.05016 21.4979 4.5397 20.6451 5.03915 19.7769C4.83269 19.6426 4.64878 19.5146 4.45766 19.3992C4.21063 19.2495 4.14753 19.0818 4.39815 18.8654C4.68304 19.0115 4.97694 19.1621 5.29518 19.3252C5.37993 19.1846 5.45385 19.0683 5.52237 18.9484C7.59681 15.3143 9.65411 11.6703 11.752 8.04971C12.8131 6.21959 13.9635 4.44357 15.3374 2.82441C15.9775 2.06982 16.7095 1.41621 17.5516 0.898726C17.8076 0.741858 18.1204 0.648098 18.4188 0.598514C18.6947 0.552536 18.884 0.745464 18.8624 1.02584C18.8372 1.36482 18.8002 1.71822 18.6821 2.03376C17.9663 3.94953 16.6879 5.39108 14.9191 6.40441C14.8271 6.4576 14.7352 6.51079 14.6297 6.57119C14.9164 7.01024 14.8316 7.43937 14.5756 7.82433C14.3322 8.19035 14.0572 8.54376 13.7462 8.85388C11.9476 10.6488 10.4123 12.643 9.14655 14.8455C9.06361 14.9897 8.99419 15.1421 8.91846 15.2909C8.9419 15.3098 8.96624 15.3278 8.98968 15.3468C9.07533 15.2647 9.16278 15.1836 9.24662 15.0997C10.3384 14.0026 11.4752 12.9613 12.8591 12.2346C13.6137 11.838 14.4007 11.5657 15.2752 11.655C16.1362 11.7424 16.6699 12.2842 16.7158 13.1578C16.7708 14.1847 16.367 15.0601 15.7449 15.8345C14.4656 17.4275 12.7978 18.4715 10.8937 19.1539C9.42422 19.6804 7.90693 19.987 6.34728 20.0969C6.18139 20.1087 5.98306 20.2367 5.87848 20.371C5.74505 20.5432 5.64768 20.7704 5.61433 20.9859C5.54761 21.4177 5.3024 21.6882 4.93547 21.8694C4.57846 22.0461 4.21424 22.2083 3.84912 22.3697C3.7788 22.4013 3.69315 22.3995 3.51465 22.4292ZM6.46087 19.5398C7.17128 19.4118 7.81678 19.3207 8.45056 19.1774C10.6097 18.6878 12.4949 17.716 13.9292 15.9814C14.5576 15.2223 15.0237 14.3821 15.1526 13.3868C15.2346 12.7494 14.8731 12.3807 14.242 12.4835C13.9797 12.5258 13.7047 12.5889 13.4739 12.7125C12.8861 13.0271 12.2902 13.339 11.7502 13.7258C9.65231 15.2268 8.01963 17.167 6.59069 19.2928C6.55643 19.3433 6.53299 19.4019 6.46087 19.5398ZM12.054 9.27761C12.0756 9.29564 12.0973 9.31457 12.1189 9.3326C12.6851 8.73578 13.2567 8.14257 13.8156 7.53854C14.0121 7.32668 14.0148 7.06704 13.885 6.81371C13.7687 6.58742 13.8354 6.43326 14.032 6.29172C14.3286 6.07715 14.6198 5.85267 14.902 5.61917C16.0821 4.64191 17.0431 3.49605 17.6102 2.05179C17.6381 1.98147 17.6688 1.91205 17.6904 1.83993C17.7111 1.76961 17.7229 1.69659 17.758 1.53521C15.4789 3.92248 13.5632 6.45129 12.054 9.27761Z" fill="#9A9A9A"/>
<path d="M5.63062 22.3968C5.67569 22.1011 5.87133 22.1128 6.07327 22.1128C9.89308 22.1146 13.7129 22.1146 17.5327 22.1146C18.0267 22.1146 18.5208 22.1146 19.0139 22.1146C19.0311 22.1516 19.0482 22.1885 19.0653 22.2255C18.9499 22.2895 18.8345 22.4085 18.7191 22.4094C14.3818 22.4184 10.0436 22.4157 5.70634 22.4139C5.68561 22.4148 5.66397 22.4049 5.63062 22.3968Z" fill="#9A9A9A"/>
</svg>
