<svg width="14" height="15" viewBox="0 0 14 15" fill="none" xmlns="http://www.w3.org/2000/svg">
<path d="M7.40537 14.6031L7.39694 14.6045L7.34251 14.6295L7.32718 14.6323L7.31645 14.6295L7.26202 14.6045C7.25384 14.6021 7.24771 14.6033 7.24362 14.6081L7.24055 14.6152L7.22752 14.9208L7.23135 14.9351L7.23902 14.9444L7.31875 14.9972L7.33025 15.0001L7.33945 14.9972L7.41917 14.9444L7.42837 14.933L7.43144 14.9208L7.41841 14.6159C7.41636 14.6083 7.41202 14.604 7.40537 14.6031ZM7.60853 14.5224L7.59856 14.5238L7.45674 14.5902L7.44907 14.5973L7.44677 14.6052L7.46057 14.9122L7.4644 14.9208L7.47054 14.9258L7.62463 14.9922C7.63434 14.9946 7.64175 14.9927 7.64686 14.9865L7.64993 14.9765L7.62386 14.5381C7.62131 14.5295 7.61619 14.5243 7.60853 14.5224ZM7.0604 14.5238C7.05702 14.5219 7.05298 14.5213 7.04912 14.5221C7.04527 14.5229 7.04189 14.525 7.0397 14.5281L7.0351 14.5381L7.00903 14.9765C7.00954 14.9851 7.01389 14.9908 7.02207 14.9937L7.03356 14.9922L7.18765 14.9258L7.19532 14.9201L7.19839 14.9122L7.21142 14.6052L7.20912 14.5966L7.20145 14.5895L7.0604 14.5238Z" fill="white"/>
<path d="M7.05654 1.23564C7.31451 1.13964 7.59562 1.11072 7.86986 1.15197C8.14409 1.19322 8.40114 1.3031 8.61355 1.46985L8.71014 1.55197L12.3316 4.92522C12.5283 5.10821 12.6679 5.33757 12.7354 5.58875C12.8029 5.83993 12.7958 6.10348 12.7149 6.35121L12.6713 6.46546L10.8582 10.6877C10.7565 10.9241 10.5888 11.1308 10.3724 11.2865C10.1561 11.4422 9.899 11.5412 9.62778 11.5732L5.73413 12.0266C5.63396 12.0376 5.52919 12.0509 5.41982 12.0666L5.07944 12.118L4.90158 12.148L4.34732 12.248L3.96784 12.3237L3.39671 12.4429L2.66459 12.6057L1.4748 12.8885L0.979566 13.0127C0.854589 13.0447 0.722984 13.047 0.596818 13.0193C0.470652 12.9917 0.353963 12.9349 0.257449 12.8544C0.160936 12.7738 0.0876864 12.6719 0.0444171 12.5581C0.00114783 12.4443 -0.0107566 12.3222 0.00979518 12.203L0.0358601 12.0987L0.262012 11.3047L0.464399 10.5563L0.639188 9.87441L0.767213 9.34243L0.847708 8.98826L0.955801 8.4727L1.01713 8.14637L1.06619 7.84075L1.57216 4.07048C1.60403 3.8378 1.69694 3.61602 1.84268 3.42472C1.98842 3.23343 2.1825 3.07852 2.40778 2.97368L2.52353 2.9244L7.05654 1.23564ZM7.62538 2.56166L3.09313 4.25043L2.64543 7.58654L2.60863 7.86931C2.53338 8.39461 2.43492 8.9168 2.31348 9.43455L2.18239 9.9958L4.70303 7.64795C4.61564 7.34428 4.63828 7.02224 4.76742 6.73177C4.89657 6.4413 5.12501 6.19864 5.41731 6.04144C5.70961 5.88423 6.04944 5.82126 6.38408 5.86229C6.71872 5.90332 7.02948 6.04605 7.26815 6.26836C7.50682 6.49067 7.66006 6.78012 7.70411 7.09183C7.74816 7.40353 7.68055 7.72006 7.51177 7.99232C7.343 8.26459 7.08248 8.47737 6.77064 8.59766C6.45879 8.71796 6.11305 8.73904 5.78703 8.65764L3.26639 11.0055L3.5669 10.9434L4.16793 10.8255C4.5425 10.7543 4.91904 10.6924 5.29716 10.6399L9.43459 10.1572L11.2476 5.93562L7.62538 2.56166ZM9.43689 0.209525C9.5688 0.086474 9.74438 0.0124857 9.93069 0.00144232C10.117 -0.00960106 10.3012 0.0430594 10.4488 0.149543L10.5209 0.209525L13.7729 3.23859C13.9118 3.3668 13.9929 3.53962 13.9996 3.72169C14.0062 3.90376 13.9379 4.08131 13.8086 4.21799C13.6793 4.35468 13.4988 4.44016 13.304 4.45694C13.1093 4.47372 12.915 4.42053 12.7609 4.30826L12.6889 4.24828L9.43689 1.21921C9.29317 1.08531 9.21244 0.903714 9.21244 0.71437C9.21244 0.525025 9.29317 0.343432 9.43689 0.209525Z" fill="white"/>
</svg>
