<svg width="54" height="56" viewBox="0 0 54 56" fill="none" xmlns="http://www.w3.org/2000/svg">
<path d="M21.6 18.6667H27V34.6667H21.6V18.6667ZM27 50.4533C26.109 50.5867 25.218 50.6667 24.3 50.6667C13.851 50.6667 5.4 42.32 5.4 32C5.4 21.68 13.851 13.3333 24.3 13.3333C31.914 13.3333 38.448 17.7867 41.445 24.16C42.012 24.1067 42.606 24 43.2 24C44.685 24 46.089 24.2933 47.439 24.7467C46.5418 21.9483 45.1325 19.3361 43.281 17.04L47.115 13.2533C45.9 11.8933 44.685 10.6667 43.308 9.49333L39.474 13.3333C35.289 9.97333 30.024 8 24.3 8C17.8552 8 11.6744 10.5286 7.11731 15.0294C2.56017 19.5303 0 25.6348 0 32C0 38.3652 2.56017 44.4697 7.11731 48.9706C11.6744 53.4714 17.8552 56 24.3 56C25.434 56 26.541 55.8933 27.648 55.76C27.243 54.7467 27 53.6533 27 52.5333V50.4533ZM32.4 0H16.2V5.33333H32.4V0ZM54 43.4667V52.8C54 54.4 52.38 56 50.49 56H35.64C34.02 56 32.4 54.4 32.4 52.5333V43.2C32.4 41.6 34.02 40 35.64 40V36C35.64 32.2667 39.42 29.3333 43.2 29.3333C46.98 29.3333 50.76 32.2667 50.76 36V40C52.38 40 54 41.6 54 43.4667ZM47.25 36C47.25 33.8667 45.36 32.5333 43.2 32.5333C41.04 32.5333 39.15 33.8667 39.15 36V40H47.25V36Z" fill="#A0A0A0"/>
</svg>