
<svg width="29" height="30" viewBox="0 0 29 30" fill="none" xmlns="http://www.w3.org/2000/svg">
<path d="M11.6 10H14.5V18.5714H11.6V10ZM14.5 27.0286C14.0215 27.1 13.543 27.1429 13.05 27.1429C7.4385 27.1429 2.9 22.6714 2.9 17.1429C2.9 11.6143 7.4385 7.14286 13.05 7.14286C17.139 7.14286 20.648 9.52857 22.2575 12.9429C22.562 12.9143 22.881 12.8571 23.2 12.8571C23.9975 12.8571 24.7515 13.0143 25.4765 13.2571C24.9947 11.758 24.2378 10.3586 23.2435 9.12857L25.3025 7.1C24.65 6.37143 23.9975 5.71429 23.258 5.08571L21.199 7.14286C18.9515 5.34286 16.124 4.28571 13.05 4.28571C9.58892 4.28571 6.26961 5.6403 3.82226 8.05148C1.37491 10.4627 0 13.7329 0 17.1429C0 20.5528 1.37491 23.823 3.82226 26.2342C6.26961 28.6454 9.58892 30 13.05 30C13.659 30 14.2535 29.9429 14.848 29.8714C14.6305 29.3286 14.5 28.7429 14.5 28.1429V27.0286ZM17.4 0H8.7V2.85714H17.4V0ZM29 23.2857V28.2857C29 29.1429 28.13 30 27.115 30H19.14C18.27 30 17.4 29.1429 17.4 28.1429V23.1429C17.4 22.2857 18.27 21.4286 19.14 21.4286V19.2857C19.14 17.2857 21.17 15.7143 23.2 15.7143C25.23 15.7143 27.26 17.2857 27.26 19.2857V21.4286C28.13 21.4286 29 22.2857 29 23.2857ZM25.375 19.2857C25.375 18.1429 24.36 17.4286 23.2 17.4286C22.04 17.4286 21.025 18.1429 21.025 19.2857V21.4286H25.375V19.2857Z" fill="#A0A0A0"/>
</svg>
