<svg width="119" height="36" viewBox="0 0 119 36" fill="none" xmlns="http://www.w3.org/2000/svg">
<path d="M8.1543 4.50586C7.09635 4.73372 6.11979 4.93717 5.22461 5.11621C4.83398 5.19759 4.44336 5.27083 4.05273 5.33594C3.67839 5.40104 3.32031 5.46615 2.97852 5.53125C2.63672 5.58008 2.32747 5.62077 2.05078 5.65332C1.79036 5.68587 1.59505 5.70215 1.46484 5.70215C1.18815 5.70215 0.952148 5.65332 0.756836 5.55566C0.577799 5.44173 0.488281 5.22201 0.488281 4.89648V2.16211C0.488281 1.85286 0.61849 1.57617 0.878906 1.33203C1.13932 1.07161 1.54622 0.941406 2.09961 0.941406H32.3975C32.9508 0.941406 33.3577 1.07161 33.6182 1.33203C33.8786 1.57617 34.0088 1.85286 34.0088 2.16211V4.89648C34.0088 5.22201 33.9111 5.44173 33.7158 5.55566C33.5368 5.65332 33.3089 5.70215 33.0322 5.70215C32.8857 5.70215 32.6823 5.68587 32.4219 5.65332C32.1615 5.62077 31.8604 5.58008 31.5186 5.53125C31.1768 5.46615 30.8105 5.40104 30.4199 5.33594C30.0456 5.27083 29.6631 5.19759 29.2725 5.11621C28.3773 4.93717 27.4007 4.73372 26.3428 4.50586V32.6553C26.3428 33.2087 26.2939 33.6969 26.1963 34.1201C26.0986 34.527 25.9115 34.877 25.6348 35.1699C25.3743 35.4466 25.0081 35.6582 24.5361 35.8047C24.0641 35.9349 23.4619 36 22.7295 36H11.8408C11.0758 36 10.4492 35.9268 9.96094 35.7803C9.48893 35.6338 9.11458 35.4222 8.83789 35.1455C8.57747 34.8688 8.39844 34.5189 8.30078 34.0957C8.20312 33.6725 8.1543 33.1761 8.1543 32.6064V4.50586ZM24.2676 3.99316L22.3633 3.57812V33.9492C22.7539 33.9492 23.0713 33.9411 23.3154 33.9248C23.5596 33.8923 23.7549 33.8271 23.9014 33.7295C24.0479 33.6156 24.1455 33.4609 24.1943 33.2656C24.2432 33.054 24.2676 32.7611 24.2676 32.3867V3.99316ZM41.6725 13.8564C41.6725 14.1331 41.6074 14.3936 41.4771 14.6377C41.3632 14.8818 41.0947 15.0039 40.6715 15.0039H38.6207C38.4742 15.0039 38.3277 14.9958 38.1813 14.9795C38.0348 14.9632 37.9046 14.9225 37.7906 14.8574C37.6767 14.776 37.5872 14.6621 37.5221 14.5156C37.457 14.3529 37.4244 14.1331 37.4244 13.8564V2.08887C37.4244 1.81217 37.457 1.60059 37.5221 1.4541C37.5872 1.29134 37.6767 1.17741 37.7906 1.1123C37.9046 1.03092 38.0348 0.982096 38.1813 0.96582C38.3277 0.949544 38.4742 0.941406 38.6207 0.941406H40.6715C41.0947 0.941406 41.3632 1.06348 41.4771 1.30762C41.6074 1.55176 41.6725 1.81217 41.6725 2.08887V13.8564ZM46.8215 14.3936C46.8215 13.8402 46.8703 13.3519 46.968 12.9287C47.0656 12.4893 47.2528 12.1312 47.5295 11.8545C47.8062 11.5778 48.1887 11.3662 48.677 11.2197C49.1652 11.0732 49.8 11 50.5812 11H60.5666C61.299 11 61.9175 11.0732 62.4221 11.2197C62.9266 11.3662 63.2928 11.6185 63.5207 11.9766C63.7323 11.8138 63.9927 11.651 64.302 11.4883C64.6112 11.3092 64.9449 11.1465 65.3029 11C65.6773 10.8535 66.0679 10.7396 66.4748 10.6582C66.898 10.5605 67.3293 10.5117 67.7687 10.5117C69.2661 10.5117 70.438 11.0081 71.2844 12.001C71.496 11.8219 71.7645 11.6429 72.09 11.4639C72.4156 11.2848 72.7736 11.1302 73.1643 11C73.5549 10.8535 73.9618 10.7396 74.385 10.6582C74.8244 10.5605 75.2557 10.5117 75.6789 10.5117C77.2414 10.5117 78.454 11.0488 79.3166 12.123C80.1955 13.1973 80.635 14.776 80.635 16.8594V34.8525C80.635 35.1292 80.5943 35.349 80.5129 35.5117C80.4478 35.6582 80.3583 35.7721 80.2443 35.8535C80.1304 35.9186 80.0002 35.9593 79.8537 35.9756C79.7072 35.9919 79.5607 36 79.4143 36H77.8762C77.453 36 77.1763 35.8779 77.0461 35.6338C76.9322 35.3896 76.8752 35.1292 76.8752 34.8525V16.6152C76.8752 15.6875 76.7043 14.9795 76.3625 14.4912C76.037 14.0029 75.508 13.7588 74.7756 13.7588C74.5803 13.7588 74.3768 13.7995 74.1652 13.8809C73.9536 13.946 73.7421 14.0355 73.5305 14.1494C73.3352 14.2471 73.148 14.361 72.9689 14.4912C72.8062 14.6051 72.6678 14.7191 72.5539 14.833C72.6027 15.1423 72.6434 15.4678 72.676 15.8096C72.7085 16.1351 72.7248 16.485 72.7248 16.8594V34.8525C72.7248 35.1292 72.6841 35.349 72.6027 35.5117C72.5376 35.6582 72.4481 35.7721 72.3342 35.8535C72.2365 35.9186 72.1145 35.9593 71.968 35.9756C71.8215 35.9919 71.675 36 71.5285 36H69.966C69.5428 36 69.2661 35.8779 69.1359 35.6338C69.022 35.3896 68.965 35.1292 68.965 34.8525V16.6152C68.965 15.6875 68.7941 14.9795 68.4523 14.4912C68.1268 14.0029 67.5979 13.7588 66.8654 13.7588C66.4911 13.7588 66.1086 13.8646 65.718 14.0762C65.3436 14.2715 65.0425 14.4831 64.8146 14.7109V32.582C64.8146 33.1517 64.7658 33.6481 64.6682 34.0713C64.5705 34.4945 64.3833 34.8525 64.1066 35.1455C63.8299 35.4222 63.4475 35.6338 62.9592 35.7803C62.4709 35.9268 61.8361 36 61.0549 36H50.5812C49.8 36 49.1652 35.9268 48.677 35.7803C48.1887 35.6338 47.8062 35.4222 47.5295 35.1455C47.2528 34.8688 47.0656 34.5189 46.968 34.0957C46.8703 33.6725 46.8215 33.1761 46.8215 32.6064V14.3936ZM62.7395 14.6133C62.7395 14.0436 62.5848 13.6449 62.2756 13.417C61.9826 13.1729 61.5025 13.0508 60.8352 13.0508V33.9492C61.2258 33.9492 61.5432 33.9411 61.7873 33.9248C62.0314 33.8923 62.2268 33.8271 62.3732 33.7295C62.5197 33.6156 62.6174 33.4609 62.6662 33.2656C62.715 33.054 62.7395 32.7611 62.7395 32.3867V14.6133ZM85.0516 14.3936C85.0516 13.8402 85.1004 13.3519 85.198 12.9287C85.2957 12.4893 85.4829 12.1312 85.7596 11.8545C86.0363 11.5778 86.4187 11.3662 86.907 11.2197C87.3953 11.0732 88.0301 11 88.8113 11H98.7967C99.5291 11 100.148 11.0732 100.652 11.2197C101.157 11.3662 101.523 11.6185 101.751 11.9766C101.962 11.8138 102.223 11.651 102.532 11.4883C102.841 11.3092 103.175 11.1465 103.533 11C103.907 10.8535 104.298 10.7396 104.705 10.6582C105.128 10.5605 105.559 10.5117 105.999 10.5117C107.496 10.5117 108.668 11.0081 109.514 12.001C109.726 11.8219 109.995 11.6429 110.32 11.4639C110.646 11.2848 111.004 11.1302 111.394 11C111.785 10.8535 112.192 10.7396 112.615 10.6582C113.054 10.5605 113.486 10.5117 113.909 10.5117C115.471 10.5117 116.684 11.0488 117.547 12.123C118.426 13.1973 118.865 14.776 118.865 16.8594V34.8525C118.865 35.1292 118.824 35.349 118.743 35.5117C118.678 35.6582 118.588 35.7721 118.474 35.8535C118.36 35.9186 118.23 35.9593 118.084 35.9756C117.937 35.9919 117.791 36 117.644 36H116.106C115.683 36 115.406 35.8779 115.276 35.6338C115.162 35.3896 115.105 35.1292 115.105 34.8525V16.6152C115.105 15.6875 114.934 14.9795 114.593 14.4912C114.267 14.0029 113.738 13.7588 113.006 13.7588C112.81 13.7588 112.607 13.7995 112.395 13.8809C112.184 13.946 111.972 14.0355 111.761 14.1494C111.565 14.2471 111.378 14.361 111.199 14.4912C111.036 14.6051 110.898 14.7191 110.784 14.833C110.833 15.1423 110.873 15.4678 110.906 15.8096C110.939 16.1351 110.955 16.485 110.955 16.8594V34.8525C110.955 35.1292 110.914 35.349 110.833 35.5117C110.768 35.6582 110.678 35.7721 110.564 35.8535C110.467 35.9186 110.345 35.9593 110.198 35.9756C110.052 35.9919 109.905 36 109.759 36H108.196C107.773 36 107.496 35.8779 107.366 35.6338C107.252 35.3896 107.195 35.1292 107.195 34.8525V16.6152C107.195 15.6875 107.024 14.9795 106.682 14.4912C106.357 14.0029 105.828 13.7588 105.096 13.7588C104.721 13.7588 104.339 13.8646 103.948 14.0762C103.574 14.2715 103.273 14.4831 103.045 14.7109V32.582C103.045 33.1517 102.996 33.6481 102.898 34.0713C102.801 34.4945 102.613 34.8525 102.337 35.1455C102.06 35.4222 101.678 35.6338 101.189 35.7803C100.701 35.9268 100.066 36 99.285 36H88.8113C88.0301 36 87.3953 35.9268 86.907 35.7803C86.4187 35.6338 86.0363 35.4222 85.7596 35.1455C85.4829 34.8688 85.2957 34.5189 85.198 34.0957C85.1004 33.6725 85.0516 33.1761 85.0516 32.6064V14.3936ZM100.97 14.6133C100.97 14.0436 100.815 13.6449 100.506 13.417C100.213 13.1729 99.7325 13.0508 99.0652 13.0508V33.9492C99.4559 33.9492 99.7732 33.9411 100.017 33.9248C100.262 33.8923 100.457 33.8271 100.603 33.7295C100.75 33.6156 100.847 33.4609 100.896 33.2656C100.945 33.054 100.97 32.7611 100.97 32.3867V14.6133Z" fill="black"/>
</svg>
